<svg width="245" height="245" viewBox="0 0 245 245" fill="none" xmlns="http://www.w3.org/2000/svg">
<path fill-rule="evenodd" clip-rule="evenodd" d="M142.938 15.3284C139.16 6.32384 130.267 0 119.897 0C106.102 0 94.9193 11.1929 94.9193 25C94.9193 26.3979 95.0339 27.769 95.2543 29.1044C41.5975 35.5248 0 81.2335 0 136.666C0 196.497 48.4601 245 108.239 245C124.014 245 139.001 241.622 152.517 235.55C156.799 236.284 161.201 236.667 165.692 236.667C208.457 236.667 243.124 201.969 243.124 159.167C243.124 135.664 232.671 114.604 216.164 100.391C243.259 77.1425 253.969 49.0423 236.461 40.8334H209.818C199.79 37.2909 193.836 32.2843 188.257 27.5919C178.537 19.4183 169.952 12.1979 142.938 15.3284ZM178.172 44.1667C178.172 49.2293 174.072 53.3334 169.014 53.3334C163.955 53.3334 159.855 49.2293 159.855 44.1667C159.855 39.1041 163.955 35 169.014 35C174.072 35 178.172 39.1041 178.172 44.1667ZM94.0794 173.333C116.492 181.255 123.329 188.708 126.551 206.667C135.749 184.132 145.175 176.615 168.181 170.833C187.331 163.333 185.666 138.333 168.181 130.833C166.516 111.666 149.864 110.833 140.705 120.833C134.67 117.204 130.529 116.297 122.388 115.833C111.62 117.339 105.858 119.014 95.7446 123.333L83.2556 122.5C74.4227 119.969 70.7535 121.855 65.7708 130.833C64.4769 135.307 64.4582 138.182 65.7708 144.167C71.7066 160.393 78.0709 166.649 94.0794 173.333ZM128.216 132.501C128.216 136.643 124.862 140.001 120.723 140.001C116.584 140.001 113.23 136.643 113.23 132.501C113.23 128.359 116.584 125.001 120.723 125.001C124.862 125.001 128.216 128.359 128.216 132.501Z" fill="black"/>
</svg>
