<svg width="116" height="116" viewBox="0 0 116 116" fill="none" xmlns="http://www.w3.org/2000/svg">
<path fill-rule="evenodd" clip-rule="evenodd" d="M67.0939 7.19586C65.3209 2.96876 61.1462 0 56.2787 0C49.8035 0 44.5543 5.2538 44.5543 11.7347C44.5543 12.3907 44.608 13.034 44.7114 13.6607C19.5255 16.6742 0 38.1294 0 64.1489C0 92.2328 22.7465 114.999 50.8058 114.999C58.2102 114.999 65.2446 113.414 71.5887 110.564C73.599 110.909 75.6656 111.089 77.7742 111.089C97.8473 111.089 114.12 94.8018 114.12 74.7111C114.12 63.6791 109.213 53.7941 101.465 47.1228C114.183 36.2102 119.21 23.0208 110.992 19.1677H98.4858C93.7787 17.5049 90.9842 15.1549 88.3652 12.9523C83.8032 9.1158 79.7732 5.72669 67.0939 7.19586ZM83.6321 20.7313C83.6321 23.1076 81.7074 25.034 79.3331 25.034C76.9589 25.034 75.0342 23.1076 75.0342 20.7313C75.0342 18.355 76.9589 16.4286 79.3331 16.4286C81.7074 16.4286 83.6321 18.355 83.6321 20.7313ZM44.1597 81.3612C54.68 85.0796 57.889 88.5781 59.4015 97.0075C63.7189 86.4301 68.1431 82.9017 78.9422 80.1878C87.9309 76.6673 87.1493 64.9326 78.9422 61.4122C78.1605 52.4156 70.3443 52.0244 66.0453 56.7184C63.2126 55.0147 61.2685 54.5891 57.4474 54.3714C52.3929 55.0785 49.6885 55.8646 44.9413 57.8918L39.0791 57.5007C34.9331 56.3126 33.2108 57.1978 30.872 61.4122C30.2647 63.5123 30.2559 64.8618 30.872 67.6707C33.6582 75.2875 36.6455 78.2237 44.1597 81.3612ZM60.1825 62.1937C60.1825 64.138 58.6077 65.7141 56.6652 65.7141C54.7226 65.7141 53.1478 64.138 53.1478 62.1937C53.1478 60.2494 54.7226 58.6733 56.6652 58.6733C58.6077 58.6733 60.1825 60.2494 60.1825 62.1937Z" fill="black"/>
</svg>
