<svg width="24" height="24" viewBox="0 0 24 24" fill="none" xmlns="http://www.w3.org/2000/svg">
<path fill-rule="evenodd" clip-rule="evenodd" d="M14.0022 1.50168C13.6321 0.619538 12.7609 0 11.7451 0C10.3938 0 9.29827 1.09645 9.29827 2.44898C9.29827 2.58589 9.30949 2.72017 9.33107 2.85096C4.07488 3.47987 0 7.95747 0 13.3876C0 19.2486 4.74711 23.9999 10.603 23.9999C12.1483 23.9999 13.6164 23.669 14.9404 23.0742C15.3599 23.1462 15.7911 23.1837 16.2311 23.1837C20.4203 23.1837 23.8163 19.7847 23.8163 15.5918C23.8163 13.2895 22.7924 11.2265 21.1754 9.83427C23.8295 7.55686 24.8785 4.80426 23.1635 4.00014H20.5536C19.5712 3.65312 18.988 3.16268 18.4414 2.70301C17.4894 1.90235 16.6483 1.19506 14.0022 1.50168ZM17.4537 4.32653C17.4537 4.82246 17.052 5.22449 16.5565 5.22449C16.061 5.22449 15.6593 4.82246 15.6593 4.32653C15.6593 3.8306 16.061 3.42857 16.5565 3.42857C17.052 3.42857 17.4537 3.8306 17.4537 4.32653ZM9.21593 16.9797C11.4115 17.7557 12.0812 18.4858 12.3968 20.245C13.2978 18.0376 14.2212 17.3012 16.4749 16.7348C18.3508 16.0001 18.1877 13.5511 16.4749 12.8164C16.3118 10.9389 14.6805 10.8572 13.7834 11.8368C13.1922 11.4813 12.7865 11.3925 11.989 11.347C10.9342 11.4946 10.3698 11.6587 9.37905 12.0817L8.15564 12.0001C7.29038 11.7522 6.93095 11.9369 6.44285 12.8164C6.3161 13.2547 6.31427 13.5363 6.44285 14.1226C7.02431 15.7121 7.64775 16.3249 9.21593 16.9797ZM12.5598 12.9795C12.5598 13.3853 12.2312 13.7142 11.8258 13.7142C11.4204 13.7142 11.0917 13.3853 11.0917 12.9795C11.0917 12.5738 11.4204 12.2448 11.8258 12.2448C12.2312 12.2448 12.5598 12.5738 12.5598 12.9795Z" fill="white" fill-opacity="0.6"/>
</svg>
