<svg width="32" height="32" viewBox="0 0 32 32" fill="none" xmlns="http://www.w3.org/2000/svg">
<mask id="mask0_3276_5584" style="mask-type:alpha" maskUnits="userSpaceOnUse" x="0" y="0" width="32" height="32">
<rect width="32" height="32" fill="#D9D9D9"/>
</mask>
<g mask="url(#mask0_3276_5584)">
<path d="M9.38889 26C8.86944 26 8.42477 25.8135 8.05486 25.4405C7.68495 25.0675 7.5 24.619 7.5 24.0952V12.6667C7.5 12.1429 7.68495 11.6944 8.05486 11.3214C8.42477 10.9484 8.86944 10.7619 9.38889 10.7619H11.2778C11.2778 9.44444 11.7382 8.32143 12.659 7.39286C13.5799 6.46429 14.6935 6 16 6C17.3065 6 18.4201 6.46429 19.341 7.39286C20.2618 8.32143 20.7222 9.44444 20.7222 10.7619H22.6111C23.1306 10.7619 23.5752 10.9484 23.9451 11.3214C24.315 11.6944 24.5 12.1429 24.5 12.6667V24.0952C24.5 24.619 24.315 25.0675 23.9451 25.4405C23.5752 25.8135 23.1306 26 22.6111 26H9.38889ZM16 18.381C17.3065 18.381 18.4201 17.9167 19.341 16.9881C20.2618 16.0595 20.7222 14.9365 20.7222 13.619H18.8333C18.8333 14.4127 18.5579 15.0873 18.0069 15.6429C17.456 16.1984 16.787 16.4762 16 16.4762C15.213 16.4762 14.544 16.1984 13.9931 15.6429C13.4421 15.0873 13.1667 14.4127 13.1667 13.619H11.2778C11.2778 14.9365 11.7382 16.0595 12.659 16.9881C13.5799 17.9167 14.6935 18.381 16 18.381ZM13.1667 10.7619H18.8333C18.8333 9.96825 18.5579 9.29365 18.0069 8.7381C17.456 8.18254 16.787 7.90476 16 7.90476C15.213 7.90476 14.544 8.18254 13.9931 8.7381C13.4421 9.29365 13.1667 9.96825 13.1667 10.7619Z" fill="black"/>
</g>
</svg>
