<svg width="20" height="20" viewBox="0 0 20 20" fill="none" xmlns="http://www.w3.org/2000/svg">
<g clip-path="url(#clip0_3563_171)">
<rect width="20" height="20" rx="10" fill="#F4F4F4"/>
<path d="M7.86618 6.71721C7.54888 6.39991 7.03443 6.39991 6.71713 6.71721C6.39983 7.03451 6.39983 7.54895 6.71713 7.86625L8.85095 10.0001L6.71715 12.1339C6.39985 12.4512 6.39985 12.9656 6.71715 13.2829C7.03445 13.6002 7.5489 13.6002 7.8662 13.2829L10 11.1491L12.1338 13.2829C12.4511 13.6002 12.9655 13.6002 13.2828 13.2829C13.6001 12.9656 13.6001 12.4512 13.2828 12.1339L11.149 10.0001L13.2828 7.86628C13.6001 7.54898 13.6001 7.03453 13.2828 6.71723C12.9655 6.39993 12.4511 6.39993 12.1338 6.71723L10 8.85103L7.86618 6.71721Z" fill="black"/>
<path fill-rule="evenodd" clip-rule="evenodd" d="M10 -1.64575C3.5682 -1.64575 -1.64581 3.56826 -1.64581 10.0001C-1.64581 16.4319 3.5682 21.6459 10 21.6459C16.4318 21.6459 21.6459 16.4319 21.6459 10.0001C21.6459 3.56826 16.4318 -1.64575 10 -1.64575ZM-0.0208131 10.0001C-0.0208131 4.46573 4.46567 -0.0207521 10 -0.0207521C15.5344 -0.0207521 20.0209 4.46573 20.0209 10.0001C20.0209 15.5344 15.5344 20.0209 10 20.0209C4.46567 20.0209 -0.0208131 15.5344 -0.0208131 10.0001Z" fill="black"/>
</g>
<defs>
<clipPath id="clip0_3563_171">
<rect width="20" height="20" rx="10" fill="white"/>
</clipPath>
</defs>
</svg>
