<svg width="20" height="20" viewBox="0 0 20 20" fill="none" xmlns="http://www.w3.org/2000/svg">
<g clip-path="url(#clip0_3437_1872)">
<rect width="20" height="20" rx="10" fill="black"/>
<path d="M7.86612 6.71715C7.54882 6.39985 7.03437 6.39985 6.71707 6.71715C6.39977 7.03445 6.39977 7.54889 6.71707 7.86619L8.85089 10L6.71709 12.1338C6.39979 12.4511 6.39979 12.9656 6.71709 13.2829C7.03439 13.6002 7.54884 13.6002 7.86614 13.2829L9.99994 11.1491L12.1337 13.2828C12.451 13.6001 12.9655 13.6001 13.2828 13.2828C13.6001 12.9655 13.6001 12.4511 13.2828 12.1338L11.149 10L13.2828 7.86622C13.6001 7.54891 13.6001 7.03447 13.2828 6.71717C12.9655 6.39987 12.451 6.39987 12.1337 6.71717L9.99994 8.85097L7.86612 6.71715Z" fill="white"/>
<path fill-rule="evenodd" clip-rule="evenodd" d="M9.99996 -1.64581C3.56814 -1.64581 -1.64587 3.5682 -1.64587 10C-1.64587 16.4318 3.56814 21.6459 9.99996 21.6459C16.4318 21.6459 21.6458 16.4318 21.6458 10C21.6458 3.5682 16.4318 -1.64581 9.99996 -1.64581ZM-0.0208741 10C-0.0208741 4.46567 4.46561 -0.0208131 9.99996 -0.0208131C15.5343 -0.0208131 20.0208 4.46567 20.0208 10C20.0208 15.5344 15.5343 20.0209 9.99996 20.0209C4.46561 20.0209 -0.0208741 15.5344 -0.0208741 10Z" fill="white"/>
</g>
<defs>
<clipPath id="clip0_3437_1872">
<rect width="20" height="20" rx="10" fill="white"/>
</clipPath>
</defs>
</svg>
