<svg width="32" height="32" viewBox="0 0 32 32" fill="none" xmlns="http://www.w3.org/2000/svg">
<path d="M8.02195 24.2126C7.7553 23.946 7.60549 23.5843 7.60549 23.2072C7.60549 22.8301 7.75529 22.4684 8.02195 22.2018L19.8014 10.4223L11.4524 10.8861C11.0772 10.9049 10.7099 10.7743 10.4306 10.5231C10.1513 10.2718 9.98282 9.92022 9.96192 9.54513C9.94102 9.17004 10.0694 8.80192 10.3191 8.52119C10.5687 8.24045 10.9193 8.06992 11.2942 8.04685L23.3593 7.37657C23.5592 7.36523 23.7593 7.39627 23.9465 7.46764C24.1336 7.53902 24.3035 7.64912 24.4452 7.79075C24.5868 7.93237 24.6969 8.10231 24.7683 8.28945C24.8396 8.47658 24.8707 8.67669 24.8593 8.87665L24.1891 20.9417C24.1797 21.1288 24.1335 21.3123 24.053 21.4816C23.9725 21.6508 23.8593 21.8025 23.72 21.9278C23.5806 22.0532 23.4179 22.1498 23.2411 22.212C23.0643 22.2742 22.877 22.3009 22.6899 22.2905C22.5027 22.2801 22.3195 22.2328 22.1507 22.1513C21.982 22.0698 21.831 21.9557 21.7064 21.8157C21.5819 21.6756 21.4862 21.5123 21.425 21.3352C21.3638 21.158 21.3383 20.9705 21.3498 20.7835L21.8123 12.4331L10.0328 24.2126C9.76613 24.4793 9.40447 24.6291 9.02737 24.6291C8.65026 24.6291 8.2886 24.4793 8.02195 24.2126Z" fill="black"/>
</svg>
