<svg width="32" height="32" viewBox="0 0 32 32" fill="none" xmlns="http://www.w3.org/2000/svg">
<path d="M11.7114 29.3332C9.46448 28.3304 7.60855 26.7677 6.38867 24.6758" stroke="black" stroke-width="2" stroke-linecap="round"/>
<path d="M19.7666 2.91468C22.0024 2.27851 24.3107 2.88415 25.922 4.52974" stroke="black" stroke-width="2" stroke-linecap="round"/>
<path d="M5.34747 11.1554L4.85128 10.2872L5.34747 11.1554ZM8.66957 11.8232L9.53342 11.3195L8.66957 11.8232ZM4.2704 14.3374L3.40654 14.8412L4.2704 14.3374ZM10.2625 4.49671L11.1263 3.99296V3.99296L10.2625 4.49671ZM11.385 6.42165L10.5211 6.9254L11.385 6.42165ZM13.8887 12.7002C14.1669 13.1773 14.7792 13.3385 15.2563 13.0603C15.7334 12.7821 15.8946 12.1698 15.6164 11.6927L13.8887 12.7002ZM10.0507 16.1769C10.329 16.654 10.9413 16.8152 11.4183 16.537C11.8954 16.2588 12.0567 15.6465 11.7785 15.1694L10.0507 16.1769ZM5.86329 7.01089L4.99944 7.51464V7.51464L5.86329 7.01089ZM15.7842 3.90747L16.648 3.40372L16.648 3.40372L15.7842 3.90747ZM19.1517 9.68229L20.0156 9.17855L19.1517 9.68229ZM21.3967 13.5322L21.8929 14.4004C22.1245 14.268 22.2936 14.0487 22.3626 13.791C22.4317 13.5334 22.3949 13.2588 22.2606 13.0284L21.3967 13.5322ZM23.5509 7.16811L22.687 7.67186L23.5509 7.16811ZM26.9184 12.9429L27.7823 12.4392L26.9184 12.9429ZM9.32171 22.9997L10.1856 22.4959L9.32171 22.9997ZM22.6101 25.6711L22.1139 24.8029L22.6101 25.6711ZM18.3787 20.4C18.6569 20.8771 19.2692 21.0383 19.7463 20.7601C20.2234 20.4819 20.3846 19.8696 20.1064 19.3925L18.3787 20.4ZM5.84366 12.0236C6.68856 11.5407 7.52031 11.8376 7.80572 12.327L9.53342 11.3195C8.57894 9.6827 6.43597 9.38151 4.85128 10.2872L5.84366 12.0236ZM4.85128 10.2872C3.26348 11.1946 2.44709 13.1959 3.40654 14.8412L5.13425 13.8337C4.8538 13.3528 5.00186 12.5047 5.84366 12.0236L4.85128 10.2872ZM9.39862 5.00046L10.5211 6.9254L12.2488 5.9179L11.1263 3.99296L9.39862 5.00046ZM10.5211 6.9254L13.8887 12.7002L15.6164 11.6927L12.2488 5.9179L10.5211 6.9254ZM11.7785 15.1694L9.53342 11.3195L7.80572 12.327L10.0507 16.1769L11.7785 15.1694ZM9.53342 11.3195L6.72714 6.50714L4.99944 7.51464L7.80572 12.327L9.53342 11.3195ZM7.43656 4.69707C8.28146 4.2142 9.11321 4.51102 9.39862 5.00046L11.1263 3.99296C10.1718 2.35616 8.02887 2.05497 6.44417 2.96065L7.43656 4.69707ZM6.44417 2.96065C4.85638 3.86809 4.03999 5.86932 4.99944 7.51464L6.72714 6.50714C6.4467 6.02623 6.59475 5.17817 7.43656 4.69707L6.44417 2.96065ZM14.9203 4.41122L18.2878 10.186L20.0156 9.17855L16.648 3.40372L14.9203 4.41122ZM18.2878 10.186L20.5329 14.0359L22.2606 13.0284L20.0156 9.17855L18.2878 10.186ZM12.9583 4.10783C13.8032 3.62496 14.6349 3.92178 14.9203 4.41122L16.648 3.40372C15.6935 1.76692 13.5506 1.46573 11.9659 2.37141L12.9583 4.10783ZM11.9659 2.37141C10.3781 3.27885 9.56168 5.28008 10.5211 6.9254L12.2488 5.9179C11.9684 5.43699 12.1164 4.58893 12.9583 4.10783L11.9659 2.37141ZM22.687 7.67186L26.0546 13.4467L27.7823 12.4392L24.4147 6.66436L22.687 7.67186ZM20.725 7.36847C21.5699 6.8856 22.4016 7.18242 22.687 7.67186L24.4147 6.66436C23.4602 5.02757 21.3173 4.72638 19.7326 5.63205L20.725 7.36847ZM19.7326 5.63205C18.1448 6.53949 17.3284 8.54073 18.2878 10.186L20.0156 9.17855C19.7351 8.69763 19.8832 7.84957 20.725 7.36847L19.7326 5.63205ZM3.40654 14.8412L8.45786 23.5034L10.1856 22.4959L5.13425 13.8337L3.40654 14.8412ZM22.1139 24.8029C17.6246 27.3685 12.3308 26.1747 10.1856 22.4959L8.45786 23.5034C11.2722 28.3296 17.8772 29.5278 23.1063 26.5393L22.1139 24.8029ZM26.0546 13.4467C28.1949 17.1169 26.6001 22.2389 22.1139 24.8029L23.1063 26.5393C28.3385 23.549 30.6016 17.2738 27.7823 12.4392L26.0546 13.4467ZM20.1064 19.3925C19.206 17.8485 19.8363 15.5758 21.8929 14.4004L20.9005 12.664C18.0979 14.2657 16.7993 17.6916 18.3787 20.4L20.1064 19.3925Z" fill="black"/>
</svg>
