<svg width="32" height="32" viewBox="0 0 32 32" fill="none" xmlns="http://www.w3.org/2000/svg">
<path fill-rule="evenodd" clip-rule="evenodd" d="M18.7411 26.977C22.3853 26.5945 25.7437 23.7189 26.3472 20.8894H18.8102C18.8102 20.8894 18.8102 20.1336 18.8609 19.212C24.334 15.9908 26.4993 12.7051 26.4993 6.22581C21.8555 7.98157 19.0913 11.3825 17.8013 15.4562C16.7832 18.6774 16.9122 22.2535 16.9122 25.7742C16.9122 27.3088 16.9122 29.8618 16.9122 30.3318H30.1756V1.87097C24.2511 2.54378 19.2249 6.05069 16 10.4839C12.7751 6.05069 7.75353 2.54378 1.82436 1.87097V30.3502H13.2635V32H0V0C6.21941 0.0506912 12.3651 3.37327 16 7.69585C19.6303 3.37327 25.7806 0.0506912 32 0V31.9816H15.0878C15.0878 31.1659 15.1016 28.5622 15.0878 26.4101C15.0694 22.9309 14.9865 18.1936 16.0967 14.8618C17.8889 9.48387 22.0259 5.39631 28.3329 3.84332C28.3329 10.2857 27.8445 15.3502 22.0489 19.2442H28.3329C28.3329 24.6037 23.4541 28.3041 18.7319 28.6774V26.977H18.7411Z" fill="white"/>
</svg>
