<svg width="28" height="28" viewBox="0 0 28 28" fill="none" xmlns="http://www.w3.org/2000/svg">
<path fill-rule="evenodd" clip-rule="evenodd" d="M16.3985 23.6048C19.5871 23.2702 22.5258 20.754 23.0538 18.2782H16.459C16.459 18.2782 16.459 17.6169 16.5033 16.8105C21.2923 13.9919 23.1869 11.1169 23.1869 5.44758C19.1235 6.98387 16.7049 9.95968 15.5762 13.5242C14.6853 16.3427 14.7982 19.4718 14.7982 22.5524C14.7982 23.8952 14.7982 26.129 14.7982 26.5403H26.4037V1.6371C21.2197 2.22581 16.8218 5.29436 14 9.17339C11.1782 5.29436 6.78434 2.22581 1.59631 1.6371V26.5565H11.6055V28H0V0C5.44198 0.0443548 10.8195 2.95161 14 6.73387C17.1765 2.95161 22.558 0.0443548 28 0V27.9839H13.2018C13.2018 27.2702 13.2139 24.9919 13.2018 23.1089C13.1857 20.0645 13.1132 15.9194 14.0847 13.004C15.6528 8.29839 19.2727 4.72177 24.7912 3.3629C24.7912 9 24.3639 13.4315 19.2928 16.8387H24.7912C24.7912 21.5282 20.5223 24.7661 16.3904 25.0927V23.6048H16.3985Z" fill="black"/>
</svg>
